<svg width="485" height="249" viewBox="0 0 485 249" fill="none" xmlns="http://www.w3.org/2000/svg">
<path d="M2.88 224V182.784H14.912V224H2.88ZM29.7165 224V191.744H18.1325V182.784H53.3325V191.744H41.7485V224H29.7165ZM49.7875 224L65.5955 182.784H78.3315L94.1395 224H81.5955L78.1395 215.232H65.7235L62.3315 224H49.7875ZM67.3235 206.592H76.5395L71.9315 194.496L67.3235 206.592ZM116.826 224.64C109.359 224.64 103.663 222.805 99.738 219.136C95.8127 215.467 93.85 210.283 93.85 203.584C93.85 196.672 95.77 191.381 99.61 187.712C103.45 184 109.167 182.144 116.762 182.144C119.322 182.144 121.605 182.336 123.61 182.72C125.615 183.104 127.535 183.637 129.37 184.32V194.816C125.701 193.195 121.775 192.384 117.594 192.384C113.711 192.384 110.831 193.28 108.954 195.072C107.077 196.821 106.138 199.659 106.138 203.584C106.138 207.424 107.119 210.197 109.082 211.904C111.087 213.568 113.967 214.4 117.722 214.4C119.77 214.4 121.754 214.208 123.674 213.824C125.637 213.44 127.578 212.843 129.498 212.032V222.592C127.663 223.232 125.722 223.723 123.674 224.064C121.669 224.448 119.386 224.64 116.826 224.64ZM134.005 224V182.784H146.037V198.144H160.245V182.784H172.277V224H160.245V208.64H146.037V224H134.005ZM178.068 224V182.784H190.1V224H178.068Z" fill="#FD2B53"/>
<path d="M209.005 224V182.784H221.037V214.784H239.597V224H209.005ZM242.818 224V182.784H254.85V224H242.818ZM260.63 224V182.784H270.87L286.422 204.608V182.784H298.454V224H288.15L272.662 202.24V224H260.63ZM304.193 224V182.784H316.225V197.312L328.705 182.784H342.401L327.873 199.68L343.425 224H330.625L320.449 207.36L316.225 212.096V224H304.193ZM347.88 224V182.784H379.112V192H359.912V198.72H376.744V208.064H359.912V214.784H379.112V224H347.88ZM382.943 224V182.784H401.375C405.599 182.784 409.204 183.488 412.191 184.896C415.177 186.261 417.46 188.48 419.039 191.552C420.617 194.581 421.407 198.613 421.407 203.648C421.407 210.731 419.679 215.893 416.222 219.136C412.767 222.379 407.817 224 401.375 224H382.943ZM394.975 214.784H399.839C401.844 214.784 403.529 214.507 404.895 213.952C406.26 213.355 407.305 212.267 408.031 210.688C408.756 209.067 409.119 206.72 409.119 203.648C409.119 200.576 408.777 198.208 408.095 196.544C407.455 194.837 406.452 193.664 405.087 193.024C403.721 192.341 401.972 192 399.839 192H394.975V214.784ZM425.88 224V182.784H437.912V224H425.88ZM443.693 224V182.784H453.933L469.485 204.608V182.784H481.517V224H471.213L455.725 202.24V224H443.693Z" fill="#131025"/>
<path d="M286.2 5.36567L286.192 5.3634L286.185 5.36116C282.178 4.15845 278.049 3.41197 273.875 3.13592C264.76 2.48832 256.018 4.1136 247.939 8.94305L247.938 8.94337C243.733 11.4582 239.922 14.6513 237.141 19.0694C236.723 19.7299 236.304 20.5437 235.965 21.2078C235.897 21.2023 235.829 21.1977 235.76 21.194C230.377 20.7229 225.111 21.2484 219.962 22.4916L219.961 22.4918C209.43 25.0385 202.377 31.6628 198.682 41.6514C197.789 44.0544 197.363 46.7268 196.998 49.0143C196.874 49.7902 196.757 50.5219 196.632 51.1837C196.471 52.0256 196.323 52.841 196.178 53.6391C195.939 54.9575 195.708 56.2289 195.44 57.4957C194.87 57.5603 194.303 57.6498 193.74 57.7637C188.929 58.6204 184.692 60.6402 180.84 63.1L180.837 63.1018C177.883 64.9929 175.12 67.1867 172.504 69.2647C171.872 69.7666 171.248 70.2617 170.633 70.7441L170.631 70.7456C169.957 71.2749 169.357 71.7707 168.797 72.2333C167.389 73.3975 166.236 74.3515 164.788 75.0987C161.651 76.7146 158.814 77.2422 155.9 76.3009C154.039 75.6908 152.21 74.8671 150.251 73.9683L150.233 73.9602L150.215 73.9522C147.514 72.7557 145.026 71.5169 142.738 69.8909L137.115 65.8958L138.026 72.7329C138.032 72.7775 138.035 72.8035 138.04 72.8371C138.042 72.8564 138.045 72.8782 138.048 72.9075C138.056 72.9701 138.071 73.0906 138.099 73.2319C139.306 79.5065 141.187 85.6327 143.707 91.5041C146.901 98.9846 151.058 106.06 157.108 111.981L157.108 111.982C164.204 118.921 172.76 122.85 182.841 123.182L182.847 123.182C185.598 123.267 188.35 123.101 191.068 122.686C191.825 124.209 192.654 125.695 193.554 127.139C196.256 131.513 199.738 135.764 204.928 138.309C212.268 141.918 220.096 142.977 228.179 141.172C234.942 139.663 240.603 136.223 245.524 131.821C245.677 131.684 245.831 131.545 245.984 131.404C246.891 132.162 247.928 132.965 249.008 133.736C251.13 135.25 253.669 136.822 255.949 137.689L255.951 137.69C263.316 140.485 270.834 140.875 278.39 139.168C285.645 137.53 292.226 134.263 297.66 128.877C301.026 125.551 303.464 121.555 304.438 116.782C306.159 116.8 307.88 116.745 309.597 116.616C314.176 116.317 318.814 115.424 323.186 113.309L323.191 113.306C331.297 109.367 337.254 103.147 341.41 95.437L341.41 95.4369C345.123 88.5461 346.467 81.0852 346.734 73.6375L346.734 73.6304L346.734 73.6233C346.901 68.2624 346.162 62.9117 344.55 57.7963C344.372 57.2183 344.194 56.6178 344.012 56.0009C343.162 53.1291 342.208 49.9026 340.62 46.9479C335.663 37.7167 328.337 30.9824 318.086 27.6882C314.077 26.3999 309.999 25.8414 305.916 25.7782C304.925 23.264 303.793 20.6026 302.237 18.1179C298.486 12.1101 293.299 7.53706 286.2 5.36567ZM304.497 25.7758C304.488 25.7759 304.478 25.776 304.469 25.7761C304.457 25.7758 304.468 25.7747 304.497 25.7758ZM306.439 27.1187L306.439 27.1192L306.437 27.1146C306.438 27.1165 306.439 27.1179 306.439 27.1187Z" fill="#FCFCFB" stroke="#131025" stroke-width="6"/>
<path d="M340.727 69.4418C340.214 62.003 337.963 54.7882 334.155 48.377C328.174 38.2268 319.275 33.0366 307.518 32.7304C305.672 32.6812 303.826 32.6991 301.981 32.7304C301.467 32.7304 301.289 32.5762 301.21 32.0934C301.095 31.4364 300.945 30.7859 300.763 30.1442C298.957 23.4005 295.381 17.9175 289.229 14.3814C283.53 11.1045 277.367 9.38341 270.771 9.41247C265.069 9.43482 259.695 10.8922 254.568 13.3219C250.739 15.1369 247.191 17.3453 244.342 20.5506C241.722 23.4922 239.636 28.5617 239.636 28.5617C239.636 28.5617 234.719 28.3382 234.455 28.3382C231.102 28.3114 227.749 28.1325 224.412 28.7271C217.103 30.028 211.421 33.6938 207.563 40.0977C204.554 45.0912 203.18 50.6033 202.375 56.2987C202.026 58.7574 201.836 61.2475 201.606 63.7264C201.573 64.0907 201.463 64.2203 201.094 64.2181C200.294 64.2181 199.494 64.2606 198.691 64.2673C194.466 64.2818 190.321 65.4164 186.677 67.5553C184.589 68.7879 182.594 70.1722 180.709 71.6972C176.909 74.7081 173.196 77.8307 169.215 80.6068C166.037 82.879 162.157 83.9527 158.263 83.6378C155.538 83.4389 153.014 82.5202 150.502 81.559C149.666 81.2349 148.826 80.9175 147.847 80.5442C148.052 81.2439 148.171 81.8094 148.381 82.3324C149.46 85.0594 150.536 87.7886 151.664 90.4955C153.83 95.6812 156.358 100.666 159.935 105.063C163.674 109.683 168.167 113.284 173.849 115.251C179.473 117.198 185.204 117.11 190.978 116.116C191.165 116.084 191.311 116.058 191.425 116.029L195.75 115.403C196.96 119.755 198.972 123.843 201.682 127.457C203.781 130.339 206.686 132.534 210.031 133.767C214.87 135.538 219.866 135.929 224.949 135.18C229.471 134.509 233.429 132.482 237.099 129.838C240.385 127.471 243.561 124.961 246.758 122.479C247.183 122.151 247.361 122.2 247.652 122.62C248.413 123.686 249.207 124.729 250.032 125.75C251.787 127.918 253.803 129.786 256.398 130.911C260.817 132.835 265.594 133.802 270.413 133.749C277.369 133.689 283.684 131.514 289.498 127.775C294.607 124.5 297.886 119.98 298.843 113.901C299.015 112.799 299.203 108.76 299.203 108.76C300.132 109.136 301.089 109.442 302.064 109.674C305.578 110.519 309.127 110.492 312.664 109.882C322.081 108.257 329.674 103.657 334.569 95.3772C339.265 87.4399 341.391 78.7337 340.727 69.4418Z" fill="#FD2B53"/>
<path d="M234.761 28.8412C234.37 31.0273 233.867 33.1932 233.592 35.4038C232.41 45.2031 236.702 53.2432 245.587 57.5013C252.574 60.8542 259.796 61.2767 267.074 58.4848C270.965 56.9917 273.818 54.3363 274.832 50.134C275.599 47.1208 275.55 43.9579 274.692 40.9696C273.927 38.3655 272.999 35.8285 271.667 33.4391C271.459 33.0658 271.354 32.992 271.024 33.3117C270.027 34.2616 269.618 35.3994 269.848 36.7539C270.074 38.0914 270.441 39.4011 270.943 40.6611C271.569 42.2258 271.39 43.8486 271.258 45.4691C270.918 49.4165 269.316 52.595 265.755 54.5955C263.838 55.6481 261.711 56.2591 259.528 56.3837C254.715 56.7257 250.5 55.0426 246.514 52.566C241.534 49.459 238.805 44.993 238.407 39.1389C238.154 35.4128 238.517 31.8767 239.63 28.5819L234.621 28.3584C234.891 28.4009 234.802 28.6132 234.761 28.8412Z" fill="#CE1034"/>
<path d="M195.332 105.38C196.405 100.968 199.215 98.1647 203.365 96.5397C206.823 95.1851 210.406 94.7135 214.094 94.8699C215.317 94.9236 216.542 94.9638 217.736 95.2656C220.063 95.8512 221.864 97.1789 223.221 99.1392C224.058 100.347 224.722 101.666 225.195 103.058C225.689 104.511 226.656 105.626 227.691 106.882C228.228 104.87 228.027 102.975 227.691 101.088C227.124 97.9479 225.275 95.7082 222.671 94.0116C219.457 91.9217 215.88 91.0097 212.096 91.0097C207.579 91.0097 203.325 92.0849 199.463 94.481C195.077 97.1991 192.122 100.963 191.226 106.14C190.707 109.144 190.971 112.124 191.626 115.081C191.811 115.924 191.816 115.975 191.051 116.1L195.745 115.43C195.509 114.588 195.301 113.732 195.122 112.864C194.633 110.385 194.705 107.828 195.332 105.38V105.38Z" fill="#CE1034"/>
<path d="M289.431 96.7496C288.351 92.2456 289.207 87.9249 290.959 83.7316C291.733 81.8786 292.609 80.0747 293.892 78.5168C295.665 76.3643 297.915 75.1192 300.768 75.1639C301.494 75.1774 302.156 75.45 302.835 75.6535C303.899 75.9709 304.95 76.362 306.074 76.4023C307.467 76.4492 307.978 75.7764 307.619 74.4218C307.339 73.3713 306.595 72.77 305.638 72.4101C301.476 70.8857 297.471 71.0891 293.736 73.635C290.258 76.0044 287.978 79.2879 286.715 83.2622C284.614 89.8762 284.578 96.4232 287.555 102.834C289.667 107.385 293.045 110.528 297.837 112.121C298.474 112.345 298.774 112.537 298.868 112.926L299.205 108.753C294.002 106.654 290.823 102.561 289.431 96.7496Z" fill="#CE1034"/>
<path fill-rule="evenodd" clip-rule="evenodd" d="M288.849 104.879H275.337V83.7137C275.337 78.6643 275.252 72.1732 268.323 72.1732C261.298 72.1732 260.223 77.6741 260.223 83.3494V104.879H246.742V61.3502H259.691V67.3026H259.878C261.667 63.8805 266.086 60.2706 272.655 60.2706C286.328 60.2706 288.852 69.2831 288.852 81.0069V104.879H288.849ZM231.527 55.3978C229.648 55.4008 227.83 54.7284 226.405 53.5032C224.98 52.278 224.043 50.5816 223.764 48.7232C223.486 46.8648 223.884 44.9682 224.887 43.379C225.89 41.7898 227.43 40.6138 229.228 40.0654C231.025 39.5171 232.96 39.6328 234.679 40.3916C236.398 41.1504 237.787 42.5017 238.593 44.1991C239.4 45.8966 239.569 47.8272 239.071 49.6391C238.572 51.451 237.44 53.0236 235.879 54.0701C234.591 54.9323 233.077 55.3943 231.527 55.3978V55.3978ZM238.282 104.87H224.756V61.3502H238.273L238.282 104.87Z" fill="white"/>
</svg>
